<?xml version="1.0" encoding="utf-8"?>
<!-- Generator: Adobe Illustrator 16.0.0, SVG Export Plug-In . SVG Version: 6.00 Build 0)  -->
<!DOCTYPE svg PUBLIC "-//W3C//DTD SVG 1.1//EN" "http://www.w3.org/Graphics/SVG/1.1/DTD/svg11.dtd">
<svg version="1.1" id="Layer_1" xmlns="http://www.w3.org/2000/svg" xmlns:xlink="http://www.w3.org/1999/xlink" x="0px" y="0px"
	 width="70px" height="70px" viewBox="0 0 70 70" enable-background="new 0 0 70 70" xml:space="preserve">
<path fill="#1C7D3F" d="M24.387,48.1c0,0-12.741-19.124,6.382-35.801C49.896-4.379,67.055,1.509,67.055,1.509
	s1.473,25.01-8.337,35.312C48.909,47.119,42.529,55.458,24.387,48.1z"/>
<path fill="#1C7D3F" d="M31.952,37.114c0,0,8.667,13.01-4.343,24.358C14.593,72.818,2.921,68.814,2.921,68.814
	S1.917,51.799,8.589,44.79C15.261,37.782,19.604,32.104,31.952,37.114z"/>
<path fill="#135E2C" d="M28.894,42.044c0,0-7.604,6.711-16.039-0.657c-8.434-7.375-6.887-15.224-6.887-15.224
	s10.852-2.141,15.943,1.538C27.003,31.373,31.027,33.668,28.894,42.044z"/>
<path fill="#135E2C" d="M28.225,41.645c0,0,2.833-5.912,9.708-3.653c6.885,2.257,7.941,7.325,7.941,7.325s-5.917,4.004-9.889,3.1
	C32.044,47.518,29.069,47.17,28.225,41.645z"/>
<path fill="#135E2C" d="M28.537,43.014c0,0,6.814,0.897,6.804,8.486c-0.011,7.592-4.71,10.297-4.71,10.297s-5.921-4.592-6.315-8.833
	C23.927,48.73,23.307,45.656,28.537,43.014z"/>
</svg>
