<?xml version="1.0" encoding="utf-8"?>
<!-- Generator: Adobe Illustrator 16.0.0, SVG Export Plug-In . SVG Version: 6.00 Build 0)  -->
<!DOCTYPE svg PUBLIC "-//W3C//DTD SVG 1.1//EN" "http://www.w3.org/Graphics/SVG/1.1/DTD/svg11.dtd">
<svg version="1.1" id="Layer_1" xmlns="http://www.w3.org/2000/svg" xmlns:xlink="http://www.w3.org/1999/xlink" x="0px" y="0px"
	 width="20px" height="20px" viewBox="-484.5 515.5 20 20" enable-background="new -484.5 515.5 20 20" xml:space="preserve">
<path fill="#7E9B7B" d="M-468.643,516.906c-1.771,0-3.203,1.436-3.203,3.203c0,1.77,1.434,3.205,3.203,3.205
	c1.771,0,3.205-1.436,3.205-3.205S-466.871,516.906-468.643,516.906z M-468.643,521.709c-0.881,0-1.599-0.717-1.599-1.6
	s0.718-1.6,1.599-1.6c0.883,0,1.6,0.717,1.6,1.6S-467.76,521.709-468.643,521.709z"/>
<path fill="#7E9B7B" d="M-480.359,525.693c-1.771,0-3.203,1.434-3.203,3.203s1.433,3.205,3.203,3.205
	c1.77,0,3.203-1.438,3.203-3.205C-477.156,527.127-478.59,525.693-480.359,525.693z M-480.359,530.496
	c-0.883,0-1.599-0.717-1.599-1.6s0.716-1.602,1.599-1.602s1.6,0.719,1.6,1.602C-478.762,529.779-479.479,530.496-480.359,530.496z"
	/>
<path fill="#7E9B7B" d="M-470.022,527.688c-1.77,0-3.203,1.434-3.203,3.203s1.434,3.203,3.203,3.203s3.203-1.436,3.203-3.203
	C-466.819,529.121-468.253,527.688-470.022,527.688z M-470.022,532.49c-0.883,0-1.598-0.717-1.598-1.6
	c0-0.885,0.715-1.602,1.598-1.602s1.6,0.717,1.6,1.602C-468.423,531.773-469.14,532.49-470.022,532.49z"/>
</svg>
