<?xml version="1.0" encoding="utf-8"?>
<!DOCTYPE svg PUBLIC "-//W3C//DTD SVG 1.1//EN" "http://www.w3.org/Graphics/SVG/1.1/DTD/svg11.dtd">
<svg version="1.1" id="Layer_1" xmlns="http://www.w3.org/2000/svg" xmlns:xlink="http://www.w3.org/1999/xlink" x="0px" y="0px"
	 width="35px" height="35px" viewBox="-0.75 -0.928 35 35" enable-background="new -0.75 -0.928 35 35" xml:space="preserve">
<path fill="#B1A2A2" d="M25.192,34.072l-7.933-7.809c0,0-4.554,12.525-13.401,1.782C-4.993,17.297,6.883,3.292,6.883,3.292
	S13.8-3.89,20.411,0.485c6.611,4.375,10.23,10.421,3.785,15.602l8.724,4.66L25.192,34.072z"/>
<g>
	<path fill="#9A7D7D" d="M17.052,24.927c-1.517-2.097-1.312-4.93-0.848-7.35c0.518-2.7,2.434-3.183,4.854-3.431
		c2.07-0.213,2.821-2.992,0.317-2.737c-3.376,0.348-6.475,1.144-8.198,4.307c-1.658,3.046-1.52,8.037,0.508,10.843
		C14.685,27.937,18.183,26.49,17.052,24.927L17.052,24.927z"/>
</g>
</svg>
