<?xml version="1.0" encoding="utf-8"?>
<!-- Generator: Adobe Illustrator 16.0.0, SVG Export Plug-In . SVG Version: 6.00 Build 0)  -->
<!DOCTYPE svg PUBLIC "-//W3C//DTD SVG 1.1//EN" "http://www.w3.org/Graphics/SVG/1.1/DTD/svg11.dtd">
<svg version="1.1" id="Layer_1" xmlns="http://www.w3.org/2000/svg" xmlns:xlink="http://www.w3.org/1999/xlink" x="0px" y="0px"
	 width="40px" height="40px" viewBox="-494.5 505.5 40 40" enable-background="new -494.5 505.5 40 40" xml:space="preserve">
<path fill="#E75359" d="M-454.5,525.498c0,11.043-8.958,20.002-20.001,20.002c-11.044,0-19.999-8.959-19.999-20.002
	c0-11.045,8.955-19.998,19.999-19.998C-463.458,505.5-454.5,514.453-454.5,525.498z"/>
<path fill="#E2858E" d="M-458.091,525.498c0,9.062-7.35,16.408-16.411,16.408c-9.06,0-16.408-7.347-16.408-16.408
	c0-9.061,7.348-16.407,16.408-16.407C-465.44,509.091-458.091,516.438-458.091,525.498z"/>
<polygon fill="#E75359" points="-467.627,509.091 -487.563,538.18 -484.511,540.875 -464.395,510.342 "/>
<polygon fill="#E75359" points="-457.378,522.158 -492.462,525.752 -492.544,529.825 -456.246,525.433 "/>
<polygon fill="#E75359" points="-462.284,538.831 -483.974,511.023 -487.467,513.117 -464.454,541.531 "/>
<g>
	<path fill="#E2A6AA" d="M-486.97,521.219c0.488,0,1.214-0.74,0.43-0.74C-487.027,520.479-487.754,521.219-486.97,521.219
		L-486.97,521.219z"/>
</g>
<g>
	<path fill="#E2A6AA" d="M-482.281,523.599c0.241,0,1.32-0.469,0.753-0.469C-481.769,523.13-482.849,523.599-482.281,523.599
		L-482.281,523.599z"/>
</g>
<g>
	<path fill="#E2A6AA" d="M-474.858,517.135c0.43,0,1.235-0.653,0.452-0.653C-474.836,516.481-475.642,517.135-474.858,517.135
		L-474.858,517.135z"/>
</g>
<g>
	<path fill="#E2A6AA" d="M-470.982,523.474c0.5,0,1.208-0.76,0.423-0.76C-471.059,522.714-471.767,523.474-470.982,523.474
		L-470.982,523.474z"/>
</g>
<g>
	<path fill="#E2A6AA" d="M-463.726,522.982c0.666,0,0.887-0.855,0.102-0.855C-464.29,522.127-464.512,522.982-463.726,522.982
		L-463.726,522.982z"/>
</g>
<g>
	<path fill="#E2A6AA" d="M-475.205,534.334c0.491,0,1.211-0.746,0.426-0.746C-475.269,533.588-475.99,534.334-475.205,534.334
		L-475.205,534.334z"/>
</g>
<g>
	<path fill="#E2A6AA" d="M-480.072,536.622c0.657,0,0.894-0.835,0.106-0.835C-480.623,535.787-480.859,536.622-480.072,536.622
		L-480.072,536.622z"/>
</g>
<g>
	<path fill="#E2A6AA" d="M-467.582,531.354c0.68,0,0.875-0.896,0.091-0.896C-468.171,530.458-468.366,531.354-467.582,531.354
		L-467.582,531.354z"/>
</g>
<g>
	<path fill="#E2A6AA" d="M-484.926,532.094c0.384,0,1.251-0.581,0.472-0.581C-484.837,531.513-485.706,532.094-484.926,532.094
		L-484.926,532.094z"/>
</g>
</svg>
