<?xml version="1.0" encoding="utf-8"?>
<!DOCTYPE svg PUBLIC "-//W3C//DTD SVG 1.1//EN" "http://www.w3.org/Graphics/SVG/1.1/DTD/svg11.dtd">
<svg version="1.1" id="Layer_1" xmlns="http://www.w3.org/2000/svg" xmlns:xlink="http://www.w3.org/1999/xlink" x="0px" y="0px"
	 width="20px" height="20px" viewBox="16.833 13.501 20 20" enable-background="new 16.833 13.501 20 20" xml:space="preserve">
<path fill="#494041" d="M31.775,15.084c-1.77,0-3.203,1.435-3.203,3.203c0,1.77,1.434,3.204,3.203,3.204
	c1.771,0,3.205-1.435,3.205-3.204C34.98,16.519,33.547,15.084,31.775,15.084z M31.775,19.887c-0.881,0-1.598-0.717-1.598-1.6
	s0.717-1.6,1.598-1.6c0.883,0,1.6,0.717,1.6,1.6S32.658,19.887,31.775,19.887z"/>
<path fill="#494041" d="M21.556,20.297c-1.771,0-3.203,1.435-3.203,3.204c0,1.769,1.433,3.204,3.203,3.204s3.204-1.436,3.204-3.204
	C24.76,21.731,23.327,20.297,21.556,20.297z M21.556,25.101c-0.882,0-1.598-0.718-1.598-1.6c0-0.884,0.716-1.601,1.598-1.601
	c0.883,0,1.6,0.717,1.6,1.601C23.156,24.383,22.439,25.101,21.556,25.101z"/>
<path fill="#494041" d="M29.799,25.252c-1.77,0-3.203,1.435-3.203,3.203c0,1.77,1.434,3.203,3.203,3.203s3.203-1.434,3.203-3.203
	C33.002,26.687,31.568,25.252,29.799,25.252z M29.799,30.055c-0.883,0-1.598-0.717-1.598-1.6c0-0.884,0.715-1.6,1.598-1.6
	s1.6,0.716,1.6,1.6C31.398,29.338,30.682,30.055,29.799,30.055z"/>
</svg>
