<?xml version="1.0" encoding="utf-8"?>
<!-- Generator: Adobe Illustrator 16.0.0, SVG Export Plug-In . SVG Version: 6.00 Build 0)  -->
<!DOCTYPE svg PUBLIC "-//W3C//DTD SVG 1.1//EN" "http://www.w3.org/Graphics/SVG/1.1/DTD/svg11.dtd">
<svg version="1.1" id="Layer_1" xmlns="http://www.w3.org/2000/svg" xmlns:xlink="http://www.w3.org/1999/xlink" x="0px" y="0px"
	 width="200px" height="61px" viewBox="0 0 200 61" enable-background="new 0 0 200 61" xml:space="preserve">
<path fill="#FFFFFF" d="M134.354,21.44c-2.48-2.479-5.5-3.721-9.061-3.721c-3.52,0-6.529,1.241-9.029,3.721
	c-2.5,2.48-3.75,5.5-3.75,9.06c0,3.521,1.25,6.53,3.75,9.03s5.51,3.75,9.029,3.75s6.53-1.25,9.031-3.75
	c2.498-2.5,3.75-5.51,3.75-9.03C138.074,26.94,136.834,23.921,134.354,21.44z"/>
<path fill="#FFFFFF" d="M29.957,6.946v16.8c-2.48-3.398-5.9-5.1-10.26-5.1c-3.521,0-6.54,1.251-9.06,3.75
	c-2.52,2.5-3.78,5.53-3.78,9.09c0,3.521,1.26,6.54,3.78,9.061s5.54,3.78,9.06,3.78c3.56,0,6.59-1.26,9.09-3.78
	c2.5-2.521,3.75-5.54,3.75-9.061V6.946H29.957z"/>
<path fill="#FFFFFF" d="M65.476,22.486c-2.48-2.479-5.5-3.72-9.06-3.72c-3.52,0-6.53,1.24-9.03,3.72
	c-2.5,2.48-3.75,5.501-3.75,9.061c0,3.521,1.25,6.53,3.75,9.03c2.5,2.5,5.51,3.75,9.03,3.75c3.52,0,6.53-1.25,9.03-3.75
	c2.499-2.5,3.75-5.51,3.75-9.03C69.196,27.987,67.956,24.967,65.476,22.486z"/>
<path fill="#FFFFFF" d="M92.925,22.517c-2.5-2.499-5.53-3.75-9.09-3.75c-3.561,0-6.59,1.251-9.09,3.75c-2.5,2.5-3.75,5.53-3.75,9.09
	v24.48h2.64V39.286c2.4,3.441,5.799,5.16,10.2,5.16c3.56,0,6.59-1.26,9.09-3.779c2.5-2.52,3.75-5.54,3.75-9.061
	C96.675,28.047,95.424,25.017,92.925,22.517z"/>
<path fill="#FFFFFF" d="M161.803,22.517c-2.5-2.499-5.53-3.75-9.09-3.75c-3.561,0-6.59,1.251-9.09,3.75
	c-2.5,2.5-3.75,5.53-3.75,9.09v24.48h2.641V39.286c2.399,3.441,5.799,5.16,10.199,5.16c3.56,0,6.59-1.26,9.09-3.779
	s3.75-5.54,3.75-9.061C165.553,28.047,164.303,25.017,161.803,22.517z M152.712,43.907c0.006,0,0.012-0.001,0.018-0.001
	C152.724,43.906,152.719,43.907,152.712,43.907L152.712,43.907z"/>
<path fill="#FFFFFF" d="M189.222,22.517c-2.5-2.499-5.53-3.75-9.09-3.75c-3.561,0-6.591,1.251-9.09,3.75
	c-2.501,2.5-3.75,5.53-3.75,9.09v24.48h2.64V39.286c2.4,3.441,5.8,5.16,10.2,5.16c3.56,0,6.59-1.26,9.09-3.779s3.75-5.54,3.75-9.061
	C192.972,28.047,191.722,25.017,189.222,22.517z"/>
<polygon fill="#FFFFFF" points="89.934,4.913 89.934,7.486 89.934,7.494 103.154,7.493 103.154,43.487 105.734,43.487 
	105.734,7.493 118.954,7.493 118.954,7.486 118.954,4.913 "/>
<path fill="#FFFFFF" d="M40.216,18.826c-1.24,0-2.16,0.42-2.76,1.261v-0.601h-2.58v24.001h2.58V24.532v-1.047
	c0-0.753,0.585-1.69,1.384-2.127c0.251,0.417,0.693,0.649,1.376,0.649c1.08,0,1.62-0.52,1.62-1.561
	C41.835,19.366,41.296,18.826,40.216,18.826z"/>
</svg>
