<?xml version="1.0" encoding="utf-8"?>
<!-- Generator: Adobe Illustrator 16.0.0, SVG Export Plug-In . SVG Version: 6.00 Build 0)  -->
<!DOCTYPE svg PUBLIC "-//W3C//DTD SVG 1.1//EN" "http://www.w3.org/Graphics/SVG/1.1/DTD/svg11.dtd">
<svg version="1.1" id="Layer_1" xmlns="http://www.w3.org/2000/svg" xmlns:xlink="http://www.w3.org/1999/xlink" x="0px" y="0px"
	 width="200px" height="101.167px" viewBox="0 0 200 101.167" enable-background="new 0 0 200 101.167" xml:space="preserve">
<path fill="#FFFFFF" d="M134.354,61.607c-2.48-2.479-5.5-3.721-9.061-3.721c-3.52,0-6.529,1.241-9.029,3.721
	c-2.5,2.48-3.75,5.5-3.75,9.06c0,3.521,1.25,6.53,3.75,9.03s5.51,3.75,9.029,3.75s6.53-1.25,9.031-3.75
	c2.498-2.5,3.75-5.51,3.75-9.03C138.074,67.107,136.834,64.087,134.354,61.607z"/>
<path fill="#FFFFFF" d="M65.476,62.653c-2.48-2.479-5.5-3.72-9.06-3.72c-3.52,0-6.53,1.24-9.03,3.72
	c-2.5,2.48-3.75,5.501-3.75,9.061c0,3.521,1.25,6.53,3.75,9.03c2.5,2.5,5.51,3.75,9.03,3.75c3.52,0,6.53-1.25,9.03-3.75
	c2.499-2.5,3.75-5.51,3.75-9.03C69.196,68.154,67.956,65.133,65.476,62.653z"/>
<path fill="#FFFFFF" d="M92.925,62.683c-2.5-2.499-5.53-3.75-9.09-3.75c-3.561,0-6.59,1.251-9.09,3.75c-2.5,2.5-3.75,5.53-3.75,9.09
	v24.48h2.64V79.453c2.4,3.441,5.799,5.16,10.2,5.16c3.56,0,6.59-1.26,9.09-3.779c2.5-2.52,3.75-5.54,3.75-9.061
	C96.675,68.213,95.424,65.183,92.925,62.683z"/>
<path fill="#FFFFFF" d="M161.803,62.683c-2.5-2.499-5.53-3.75-9.09-3.75c-3.561,0-6.59,1.251-9.09,3.75
	c-2.5,2.5-3.75,5.53-3.75,9.09v24.48h2.641V79.453c2.399,3.441,5.799,5.16,10.199,5.16c3.56,0,6.59-1.26,9.09-3.779
	s3.75-5.54,3.75-9.061C165.553,68.213,164.303,65.183,161.803,62.683z M152.712,84.074c0.006,0,0.012-0.001,0.018-0.001
	C152.724,84.073,152.719,84.074,152.712,84.074L152.712,84.074z"/>
<path fill="#FFFFFF" d="M189.222,62.683c-2.5-2.499-5.53-3.75-9.09-3.75c-3.561,0-6.591,1.251-9.09,3.75
	c-2.501,2.5-3.75,5.53-3.75,9.09v24.48h2.64V79.453c2.4,3.441,5.8,5.16,10.2,5.16c3.56,0,6.59-1.26,9.09-3.779s3.75-5.54,3.75-9.061
	C192.972,68.213,191.722,65.183,189.222,62.683z"/>
<polygon fill="#FFFFFF" points="89.934,46.08 89.934,47.653 89.934,47.66 103.154,47.66 103.154,83.654 105.734,83.654 
	105.734,47.66 118.954,47.66 118.954,47.653 118.954,46.08 "/>
<path fill="#FFFFFF" d="M40.216,58.993c-1.24,0-2.16,0.42-2.76,1.261v-0.601h-2.58v24.001h2.58V64.699v-1.047
	c0-0.753,0.585-1.69,1.384-2.127c0.251,0.417,0.693,0.649,1.376,0.649c1.08,0,1.62-0.52,1.62-1.561
	C41.835,59.533,41.296,58.993,40.216,58.993z"/>
<path fill="#FFFFFF" d="M34.931,45.04l-6.383,15.569c-1.008-4.093-3.531-6.969-7.572-8.625c-3.264-1.338-6.538-1.326-9.823,0.032
	c-3.284,1.36-5.603,3.691-6.956,6.989c-1.338,3.264-1.318,6.541,0.06,9.833c1.378,3.292,3.698,5.607,6.962,6.946
	c3.298,1.353,6.586,1.336,9.86-0.049c3.273-1.386,5.58-3.708,6.918-6.973l9.324-22.743L34.931,45.04z"/>
<path fill="#FFFFFF" d="M65.747,11.592c0,0,3.785,1.777,7.772,5.246c2.965,2.58,6.027,6.755,6.027,6.755s-9.44,11.012-11.45,13.936
	c-2.005,2.926-4.109,8.598-5.921,10.479c-1.816,1.879-5.213,5.527-9.599,6.384c-4.383,0.86-12.222,1.092-12.222,1.092
	s-0.437-2.132,0.24-3.476c0.674-1.344,3.25-1.883,4.784-1.99c7.358-0.514,14.182-11.965,5.999-19.083
	c-6.24-5.426-12.746-1.961-14.543-0.114c-3.886,3.986-3.889,7.053-4.044,9.193c-0.154,2.141-0.126,3.658-1.659,4.452
	c-1.528,0.796-2.845,0.521-2.845,0.521s-1.185-8.517-0.77-11.268c0.418-2.751,1.693-5.596,2.653-6.977c0,0-15.242-0.378-14.14-7.565
	l16.267,1.333c0,0-11.93-4.388-8.837-10.562l17.044,6.981c0,0-3.853-3.578-5.105-4.802c-1.405-1.374-3.879-3.942-0.483-7.845
	c0,0,10.568,9.192,13.842,12.039c2.018,1.755,7.836,5.795,11.778,1.261C65.298,12.108,65.747,11.592,65.747,11.592z"/>
</svg>
