<?xml version="1.0" encoding="utf-8"?>
<!-- Generator: Adobe Illustrator 16.0.0, SVG Export Plug-In . SVG Version: 6.00 Build 0)  -->
<!DOCTYPE svg PUBLIC "-//W3C//DTD SVG 1.1//EN" "http://www.w3.org/Graphics/SVG/1.1/DTD/svg11.dtd">
<svg version="1.1" id="Layer_1" xmlns="http://www.w3.org/2000/svg" xmlns:xlink="http://www.w3.org/1999/xlink" x="0px" y="0px"
	 width="200px" height="75px" viewBox="0 0 200 75" enable-background="new 0 0 200 75" xml:space="preserve">
<path fill="#FFFFFF" d="M134.354,28.44c-2.48-2.479-5.5-3.721-9.061-3.721c-3.52,0-6.529,1.241-9.029,3.721
	c-2.5,2.48-3.75,5.5-3.75,9.06c0,3.521,1.25,6.53,3.75,9.03s5.51,3.75,9.029,3.75s6.53-1.25,9.031-3.75
	c2.498-2.5,3.75-5.51,3.75-9.03C138.074,33.94,136.834,30.921,134.354,28.44z"/>
<path fill="#FFFFFF" d="M29.957,12.93v16.8c-2.48-3.398-5.9-5.1-10.26-5.1c-3.521,0-6.54,1.251-9.06,3.75
	c-2.52,2.5-3.78,5.53-3.78,9.09c0,3.521,1.26,6.54,3.78,9.061s5.54,3.78,9.06,3.78c3.56,0,6.59-1.26,9.09-3.78
	c2.5-2.521,3.75-5.54,3.75-9.061V12.93H29.957z"/>
<path fill="#FFFFFF" d="M65.476,28.47c-2.48-2.479-5.5-3.72-9.06-3.72c-3.52,0-6.53,1.24-9.03,3.72c-2.5,2.48-3.75,5.501-3.75,9.061
	c0,3.521,1.25,6.53,3.75,9.03c2.5,2.5,5.51,3.75,9.03,3.75c3.52,0,6.53-1.25,9.03-3.75c2.499-2.5,3.75-5.51,3.75-9.03
	C69.196,33.971,67.956,30.95,65.476,28.47z"/>
<path fill="#FFFFFF" d="M92.925,28.5c-2.5-2.499-5.53-3.75-9.09-3.75c-3.561,0-6.59,1.251-9.09,3.75c-2.5,2.5-3.75,5.53-3.75,9.09
	v24.48h2.64V45.27c2.4,3.441,5.799,5.16,10.2,5.16c3.56,0,6.59-1.26,9.09-3.779c2.5-2.52,3.75-5.54,3.75-9.061
	C96.675,34.03,95.424,31,92.925,28.5z"/>
<path fill="#FFFFFF" d="M161.803,28.5c-2.5-2.499-5.53-3.75-9.09-3.75c-3.561,0-6.59,1.251-9.09,3.75c-2.5,2.5-3.75,5.53-3.75,9.09
	v24.48h2.641V45.27c2.399,3.441,5.799,5.16,10.199,5.16c3.56,0,6.59-1.26,9.09-3.779s3.75-5.54,3.75-9.061
	C165.553,34.03,164.303,31,161.803,28.5z M152.712,49.891c0.006,0,0.012-0.001,0.018-0.001
	C152.724,49.89,152.719,49.891,152.712,49.891L152.712,49.891z"/>
<path fill="#FFFFFF" d="M189.222,28.5c-2.5-2.499-5.53-3.75-9.09-3.75c-3.561,0-6.591,1.251-9.09,3.75
	c-2.501,2.5-3.75,5.53-3.75,9.09v24.48h2.64V45.27c2.4,3.441,5.8,5.16,10.2,5.16c3.56,0,6.59-1.26,9.09-3.779s3.75-5.54,3.75-9.061
	C192.972,34.03,191.722,31,189.222,28.5z"/>
<polygon fill="#FFFFFF" points="89.934,10.896 89.934,13.47 89.934,13.477 103.154,13.477 103.154,49.471 105.734,49.471 
	105.734,13.477 118.954,13.477 118.954,13.47 118.954,10.896 "/>
<path fill="#FFFFFF" d="M40.216,24.81c-1.24,0-2.16,0.42-2.76,1.261V25.47h-2.58v24.001h2.58V30.516v-1.047
	c0-0.753,0.585-1.69,1.384-2.127c0.251,0.417,0.693,0.649,1.376,0.649c1.08,0,1.62-0.52,1.62-1.561
	C41.835,25.35,41.296,24.81,40.216,24.81z"/>
</svg>
