<?xml version="1.0" encoding="utf-8"?>
<!-- Generator: Adobe Illustrator 16.0.0, SVG Export Plug-In . SVG Version: 6.00 Build 0)  -->
<!DOCTYPE svg PUBLIC "-//W3C//DTD SVG 1.1//EN" "http://www.w3.org/Graphics/SVG/1.1/DTD/svg11.dtd">
<svg version="1.1" id="Layer_1" xmlns="http://www.w3.org/2000/svg" xmlns:xlink="http://www.w3.org/1999/xlink" x="0px" y="0px"
	 width="200px" height="75px" viewBox="0 0 200 75" enable-background="new 0 0 200 75" xml:space="preserve">
<path fill="#FFFFFF" d="M138.074,37.5c0,3.521-1.252,6.53-3.75,9.03c-2.501,2.5-5.512,3.75-9.031,3.75s-6.529-1.25-9.029-3.75
	s-3.75-5.51-3.75-9.03c0-3.56,1.25-6.579,3.75-9.06c2.5-2.479,5.51-3.721,9.029-3.721c3.561,0,6.58,1.241,9.061,3.721
	C136.834,30.921,138.074,33.94,138.074,37.5z M135.494,37.5c0-3.399-0.99-6.289-2.971-8.67c-1.98-2.379-4.391-3.57-7.23-3.57
	c-2.8,0-5.189,1.191-7.17,3.57c-1.979,2.381-2.969,5.271-2.969,8.67c0,3.36,0.989,6.239,2.969,8.64c1.98,2.4,4.37,3.6,7.17,3.6
	s5.2-1.199,7.201-3.6C134.493,43.739,135.494,40.86,135.494,37.5z"/>
<circle fill="#BB2427" cx="125.294" cy="37.5" r="12.366"/>
<g>
	<path fill="#FFFFFF" d="M41.835,26.43c0,1.041-0.54,1.561-1.62,1.561s-1.62-0.52-1.62-1.561c0-0.319,0.12-0.639,0.36-0.96
		c-0.8,0.321-1.3,0.98-1.5,1.98v22.021h-2.58V25.47h2.58v0.601c0.6-0.841,1.52-1.261,2.76-1.261
		C41.296,24.81,41.835,25.35,41.835,26.43z"/>
</g>
<g>
	<path fill="#FFFFFF" d="M118.954,13.47h-13.22v36.001h-2.58V13.47h-13.22v-0.54h29.02V13.47z"/>
</g>
<path fill="#FFFFFF" d="M32.537,37.47c0,3.521-1.25,6.54-3.75,9.061c-2.5,2.521-5.53,3.78-9.09,3.78c-3.521,0-6.54-1.26-9.06-3.78
	s-3.78-5.54-3.78-9.061c0-3.56,1.26-6.59,3.78-9.09c2.52-2.499,5.54-3.75,9.06-3.75c4.359,0,7.779,1.701,10.26,5.1v-16.8h2.58V37.47
	z M29.957,37.47c0-3.399-1-6.3-3-8.7c-2-2.399-4.42-3.6-7.26-3.6c-2.8,0-5.2,1.2-7.2,3.6c-2,2.4-3,5.301-3,8.7c0,3.401,1,6.3,3,8.7
	c2,2.4,4.4,3.6,7.2,3.6c2.84,0,5.259-1.199,7.26-3.6C28.957,43.77,29.957,40.871,29.957,37.47z"/>
<circle fill="#BB2427" cx="19.586" cy="37.53" r="12.366"/>
<path fill="#FFFFFF" d="M69.196,37.53c0,3.521-1.251,6.53-3.75,9.03c-2.5,2.5-5.511,3.75-9.03,3.75c-3.52,0-6.53-1.25-9.03-3.75
	c-2.5-2.5-3.75-5.51-3.75-9.03c0-3.56,1.25-6.58,3.75-9.061c2.5-2.479,5.51-3.72,9.03-3.72c3.56,0,6.58,1.24,9.06,3.72
	C67.956,30.95,69.196,33.971,69.196,37.53z M66.616,37.53c0-3.399-0.99-6.29-2.97-8.67s-4.39-3.57-7.23-3.57
	c-2.8,0-5.19,1.19-7.17,3.57s-2.97,5.271-2.97,8.67c0,3.36,0.99,6.239,2.97,8.64s4.37,3.6,7.17,3.6c2.799,0,5.2-1.199,7.2-3.6
	C65.615,43.77,66.616,40.891,66.616,37.53z"/>
<circle fill="#BB2427" cx="56.384" cy="37.53" r="12.366"/>
<path fill="#FFFFFF" d="M96.675,37.59c0,3.521-1.25,6.541-3.75,9.061c-2.5,2.52-5.53,3.779-9.09,3.779c-4.4,0-7.8-1.719-10.2-5.16
	V62.07h-2.64V37.59c0-3.56,1.25-6.59,3.75-9.09c2.5-2.499,5.529-3.75,9.09-3.75c3.56,0,6.59,1.251,9.09,3.75
	C95.424,31,96.675,34.03,96.675,37.59z M94.095,37.59c0-3.399-1-6.3-3-8.7c-2.001-2.399-4.42-3.6-7.26-3.6c-2.8,0-5.2,1.2-7.2,3.6
	c-2.001,2.4-3,5.301-3,8.7c0,3.4,0.999,6.301,3,8.7c2,2.4,4.399,3.601,7.2,3.601c2.84,0,5.259-1.2,7.26-3.601
	C93.095,43.891,94.095,40.99,94.095,37.59z"/>
<circle fill="#BB2427" cx="83.804" cy="37.53" r="12.366"/>
<path fill="#FFFFFF" d="M165.553,37.59c0,3.521-1.25,6.541-3.75,9.061s-5.53,3.779-9.09,3.779c-4.4,0-7.8-1.719-10.199-5.16V62.07
	h-2.641V37.59c0-3.56,1.25-6.59,3.75-9.09c2.5-2.499,5.529-3.75,9.09-3.75c3.56,0,6.59,1.251,9.09,3.75
	C164.303,31,165.553,34.03,165.553,37.59z M162.973,37.59c0-3.399-1-6.3-3-8.7c-2-2.399-4.42-3.6-7.26-3.6
	c-2.801,0-5.2,1.2-7.199,3.6c-2.002,2.4-3,5.301-3,8.7c0,3.4,0.998,6.301,3,8.7c1.999,2.4,4.398,3.601,7.199,3.601
	c2.84,0,5.26-1.2,7.26-3.601C161.973,43.891,162.973,40.99,162.973,37.59z"/>
<circle fill="#BB2427" cx="152.596" cy="37.53" r="12.366"/>
<path fill="#FFFFFF" d="M192.972,37.59c0,3.521-1.25,6.541-3.75,9.061s-5.53,3.779-9.09,3.779c-4.4,0-7.8-1.719-10.2-5.16V62.07
	h-2.64V37.59c0-3.56,1.249-6.59,3.75-9.09c2.499-2.499,5.529-3.75,9.09-3.75c3.56,0,6.59,1.251,9.09,3.75
	C191.722,31,192.972,34.03,192.972,37.59z M190.392,37.59c0-3.399-1-6.3-3-8.7c-2-2.399-4.42-3.6-7.26-3.6c-2.8,0-5.2,1.2-7.2,3.6
	c-2,2.4-3,5.301-3,8.7c0,3.4,1,6.301,3,8.7c2,2.4,4.4,3.601,7.2,3.601c2.84,0,5.26-1.2,7.26-3.601
	C189.392,43.891,190.392,40.99,190.392,37.59z"/>
<circle fill="#BB2427" cx="180.033" cy="37.53" r="12.366"/>
</svg>
