<?xml version="1.0" encoding="utf-8"?>
<!-- Generator: Adobe Illustrator 16.0.0, SVG Export Plug-In . SVG Version: 6.00 Build 0)  -->
<!DOCTYPE svg PUBLIC "-//W3C//DTD SVG 1.1//EN" "http://www.w3.org/Graphics/SVG/1.1/DTD/svg11.dtd">
<svg version="1.1" id="Layer_1" xmlns="http://www.w3.org/2000/svg" xmlns:xlink="http://www.w3.org/1999/xlink" x="0px" y="0px"
	 width="70px" height="70px" viewBox="-10 -10 70 70" enable-background="new -10 -10 70 70" xml:space="preserve">
<g>
	
		<ellipse transform="matrix(0.4653 -0.8851 0.8851 0.4653 -11.8731 33.3471)" fill="#5B3D12" cx="21.666" cy="26.501" rx="29.368" ry="19.676"/>
</g>
<circle fill="#7C5B35" cx="17.236" cy="42.216" r="1.091"/>
<circle fill="#7C5B35" cx="7.688" cy="24.562" r="0.688"/>
<circle fill="#7C5B35" cx="30.542" cy="34.918" r="1"/>
<circle fill="#7C5B35" cx="27.252" cy="44.5" r="0.625"/>
<circle fill="#7C5B35" cx="16" cy="14.5" r="0.5"/>
<circle fill="#442B09" cx="20.438" cy="3.938" r="0.938"/>
<circle fill="#442B09" cx="11.251" cy="38.25" r="1.125"/>
<circle fill="#442B09" cx="3.188" cy="30.938" r="0.688"/>
<ellipse fill="#442B09" cx="21.375" cy="17.001" rx="0.812" ry="0.875"/>
<circle fill="#442B09" cx="34.438" cy="13.062" r="0.562"/>
<circle fill="#56380D" cx="22.688" cy="-5.438" r="0.438"/>
<circle fill="#301E05" cx="28.721" cy="9.031" r="0.844"/>
<circle fill="#301E05" cx="5" cy="43.375" r="0.562"/>
<circle fill="#301E05" cx="37.585" cy="21.5" r="0.438"/>
<circle fill="#442B09" cx="23.584" cy="27.791" r="0.458"/>
<circle fill="#442B09" cx="18.375" cy="34.375" r="0.542"/>
</svg>
