<?xml version="1.0" encoding="utf-8"?>
<!-- Generator: Adobe Illustrator 16.0.0, SVG Export Plug-In . SVG Version: 6.00 Build 0)  -->
<!DOCTYPE svg PUBLIC "-//W3C//DTD SVG 1.1//EN" "http://www.w3.org/Graphics/SVG/1.1/DTD/svg11.dtd">
<svg version="1.1" id="Layer_1" xmlns="http://www.w3.org/2000/svg" xmlns:xlink="http://www.w3.org/1999/xlink" x="0px" y="0px"
	 width="50px" height="50px" viewBox="0 0 50 50" enable-background="new 0 0 50 50" xml:space="preserve">
<circle fill="#9B4356" cx="25" cy="25" r="25"/>
<g>
	<path fill="#BF97A2" d="M38.002,7.783C27.279,5.168,20.728,4.758,18.259,0.927c-3.738,1.044-7.123,2.932-9.934,5.451
		c2.311,2.317,3.634,5.67,2.046,9.672c-1.771,4.465-4.836,4.265-9.639,4.265c-0.096,0-0.189-0.011-0.285-0.015
		C0.158,21.824,0,23.393,0,25c0,0.052,0.003,0.102,0.004,0.153c2.107-0.842,4.418-1.139,6.83-0.698
		c8.668,1.585,14.001,7.76,14.001,17.333c0,2.748-0.378,5.337-1.125,7.646c0.902,0.195,1.821,0.345,2.757,0.439
		c-0.723-3.789-0.383-8.638-0.383-12.999c0-8.813,7.145-15.958,15.958-15.958c4.749,0,9.002,2.086,11.925,5.379
		C49.988,25.866,50,25.435,50,25c0-0.107-0.007-0.212-0.008-0.319c-1.48-1.188-3.156-2.467-4.992-3.174
		c-1.932-0.744-6.998-5.339-6.998-7.41s-1.572-5.71,0.498-5.71c0.716,0,3.132,0.313,5.986,0.959
		c-0.264-0.328-0.534-0.648-0.813-0.962C41.594,8.378,39.658,8.187,38.002,7.783z M9.549,19.342
		c1.533-1.492,2.277-3.908,2.415-5.572c0.121-1.459,0.046-2.812-0.462-4.436c-1.081-3.455,10.018-6.985,10.287,3.157
		C22.172,26.994,6.792,22.025,9.549,19.342z M35.477,15.776c-0.859,3.876-4.276,6.203-7.719,5.651
		c-6.923-1.11-5.048-4.438-4.607-8.383C23.648,8.584,22.003,4,30.869,7.393C34.126,8.639,36.336,11.9,35.477,15.776z"/>
</g>
</svg>
