<?xml version="1.0" encoding="utf-8"?>
<!-- Generator: Adobe Illustrator 16.0.0, SVG Export Plug-In . SVG Version: 6.00 Build 0)  -->
<!DOCTYPE svg PUBLIC "-//W3C//DTD SVG 1.1//EN" "http://www.w3.org/Graphics/SVG/1.1/DTD/svg11.dtd">
<svg version="1.1" id="Layer_1" xmlns="http://www.w3.org/2000/svg" xmlns:xlink="http://www.w3.org/1999/xlink" x="0px" y="0px"
	 width="50px" height="50px" viewBox="0 0 50 50" enable-background="new 0 0 50 50" xml:space="preserve">
<g>
	<polygon fill="#C1BF7C" points="21.174,25.388 5.168,25.388 8.488,6.132 17.875,6.132 	"/>
	<g>
		<polygon fill="#CCD64C" points="6.299,18.831 6.306,25.388 8.036,25.388 8.069,8.56 		"/>
		<polygon fill="#CCD64C" points="10.285,6.132 10.306,25.388 12.036,25.388 12.074,6.132 		"/>
		<polygon fill="#CCD64C" points="8.488,6.132 8.286,7.3 8.306,25.388 10.036,25.388 10.074,6.132 		"/>
		<polygon fill="#CCD64C" points="5.168,25.388 6.036,25.388 6.046,20.296 		"/>
		<polygon fill="#CCD64C" points="18.287,8.544 18.306,25.388 20.036,25.388 20.049,18.825 		"/>
		<polygon fill="#CCD64C" points="12.285,6.132 12.306,25.388 14.036,25.388 14.074,6.132 		"/>
		<polygon fill="#CCD64C" points="17.875,6.132 16.285,6.132 16.306,25.388 18.036,25.388 18.072,7.284 		"/>
		<polygon fill="#CCD64C" points="20.306,25.388 21.174,25.388 20.301,20.291 		"/>
		<polygon fill="#CCD64C" points="14.285,6.132 14.306,25.388 16.036,25.388 16.074,6.132 		"/>
	</g>
</g>
<g>
	<polygon fill="#C1BF7C" points="21.732,26.486 5.727,26.486 9.047,7.229 18.434,7.229 	"/>
	<g>
		<polygon fill="#DADD64" points="6.857,19.929 6.864,26.486 8.595,26.486 8.628,9.657 		"/>
		<polygon fill="#DADD64" points="10.844,7.229 10.864,26.486 12.595,26.486 12.633,7.229 		"/>
		<polygon fill="#DADD64" points="9.047,7.229 8.845,8.397 8.864,26.486 10.595,26.486 10.633,7.229 		"/>
		<polygon fill="#DADD64" points="5.727,26.486 6.595,26.486 6.605,21.394 		"/>
		<polygon fill="#DADD64" points="18.846,9.642 18.864,26.486 20.595,26.486 20.607,19.923 		"/>
		<polygon fill="#DADD64" points="12.844,7.229 12.864,26.486 14.595,26.486 14.633,7.229 		"/>
		<polygon fill="#DADD64" points="18.434,7.229 16.844,7.229 16.864,26.486 18.595,26.486 18.631,8.382 		"/>
		<polygon fill="#DADD64" points="20.864,26.486 21.732,26.486 20.859,21.388 		"/>
		<polygon fill="#DADD64" points="14.844,7.229 14.864,26.486 16.595,26.486 16.633,7.229 		"/>
	</g>
</g>
<g>
	<polygon fill="#C1BF7C" points="23.076,27.84 7.072,27.84 10.391,8.583 19.777,8.583 	"/>
	<g>
		<polygon fill="#E8E881" points="8.202,21.283 8.209,27.84 9.939,27.84 9.973,11.011 		"/>
		<polygon fill="#E8E881" points="12.188,8.583 12.209,27.84 13.939,27.84 13.978,8.583 		"/>
		<polygon fill="#E8E881" points="10.391,8.583 10.189,9.751 10.209,27.84 11.939,27.84 11.978,8.583 		"/>
		<polygon fill="#E8E881" points="7.072,27.84 7.939,27.84 7.95,22.748 		"/>
		<polygon fill="#E8E881" points="20.191,10.996 20.209,27.84 21.939,27.84 21.953,21.277 		"/>
		<polygon fill="#E8E881" points="14.188,8.583 14.209,27.84 15.939,27.84 15.978,8.583 		"/>
		<polygon fill="#E8E881" points="19.777,8.583 18.188,8.583 18.209,27.84 19.939,27.84 19.975,9.736 		"/>
		<polygon fill="#E8E881" points="22.209,27.84 23.076,27.84 22.203,22.743 		"/>
		<polygon fill="#E8E881" points="16.188,8.583 16.209,27.84 17.939,27.84 17.978,8.583 		"/>
	</g>
</g>
<g>
	<polygon fill="#C1BF7C" points="26.18,27.322 10.395,29.971 10.482,10.431 19.738,8.878 	"/>
	<g>
		<polygon fill="#EEEFA0" points="10.424,23.318 11.516,29.783 13.222,29.496 10.471,12.895 		"/>
		<polygon fill="#EEEFA0" points="12.254,10.134 15.46,29.121 17.167,28.834 14.018,9.838 		"/>
		<polygon fill="#EEEFA0" points="10.482,10.431 10.477,11.617 13.488,29.453 15.195,29.166 12.047,10.169 		"/>
		<polygon fill="#EEEFA0" points="10.395,29.971 11.25,29.826 10.417,24.804 		"/>
		<polygon fill="#EEEFA0" points="20.546,11.189 23.351,27.797 25.057,27.512 23.984,21.038 		"/>
		<polygon fill="#EEEFA0" points="14.227,9.803 17.434,28.789 19.14,28.504 15.991,9.507 		"/>
		<polygon fill="#EEEFA0" points="19.738,8.878 18.172,9.141 21.378,28.129 23.084,27.842 20.124,9.982 		"/>
		<polygon fill="#EEEFA0" points="25.323,27.467 26.18,27.322 24.474,22.441 		"/>
		<polygon fill="#EEEFA0" points="16.199,9.472 19.405,28.459 21.111,28.174 17.964,9.176 		"/>
	</g>
</g>
<g>
	<polygon fill="#C1BF7C" points="28.865,43.004 33.506,27.686 44.638,34.527 41.916,43.511 	"/>
	<g>
		<polygon fill="#CCD64C" points="37.296,30.016 33.175,28.775 32.675,30.432 43.234,33.665 		"/>
		<polygon fill="#CCD64C" points="44.115,36.246 32.017,32.603 31.514,34.26 43.599,37.96 		"/>
		<polygon fill="#CCD64C" points="44.638,34.527 43.963,34.112 32.596,30.689 32.094,32.345 44.178,36.045 		"/>
		<polygon fill="#CCD64C" points="33.506,27.686 33.254,28.516 36.449,29.495 		"/>
		<polygon fill="#CCD64C" points="40.28,43.445 29.696,40.26 29.194,41.916 33.312,43.176 		"/>
		<polygon fill="#CCD64C" points="43.537,38.16 31.438,34.518 30.934,36.174 43.019,39.873 		"/>
		<polygon fill="#CCD64C" points="41.916,43.511 42.377,41.989 30.275,38.346 29.774,40.002 41.134,43.48 		"/>
		<polygon fill="#CCD64C" points="29.117,42.174 28.865,43.004 32.319,43.139 		"/>
		<polygon fill="#CCD64C" points="42.955,40.075 30.856,36.431 30.354,38.088 42.438,41.787 		"/>
	</g>
</g>
<g>
	<polygon fill="#C1BF7C" points="28.363,44.166 32.116,28.607 43.624,34.799 41.422,43.923 	"/>
	<g>
		<polygon fill="#DADD64" points="36.034,30.717 31.851,29.712 31.445,31.396 42.172,34.018 		"/>
		<polygon fill="#DADD64" points="43.202,36.545 30.913,33.604 30.506,35.283 42.782,38.284 		"/>
		<polygon fill="#DADD64" points="43.624,34.799 42.926,34.423 31.381,31.656 30.976,33.341 43.252,36.341 		"/>
		<polygon fill="#DADD64" points="32.116,28.607 31.914,29.45 35.16,30.245 		"/>
		<polygon fill="#DADD64" points="39.786,43.95 29.036,41.379 28.63,43.061 32.813,44.082 		"/>
		<polygon fill="#DADD64" points="42.733,38.489 30.441,35.547 30.036,37.228 42.313,40.228 		"/>
		<polygon fill="#DADD64" points="41.422,43.923 41.795,42.377 29.504,39.435 29.099,41.117 40.639,43.938 		"/>
		<polygon fill="#DADD64" points="28.567,43.322 28.363,44.166 31.82,44.103 		"/>
		<polygon fill="#DADD64" points="42.266,40.433 29.975,37.49 29.568,39.173 41.845,42.173 		"/>
	</g>
</g>
<g>
	<polygon fill="#C1BF7C" points="27.562,39.186 35.885,25.517 44.953,34.92 40.073,42.938 	"/>
	<g>
		<polygon fill="#E8E881" points="38.972,28.72 35.294,26.485 34.394,27.964 43.811,33.734 		"/>
		<polygon fill="#E8E881" points="44.019,36.457 33.213,29.902 32.314,31.381 43.087,37.986 		"/>
		<polygon fill="#E8E881" points="44.953,34.92 44.403,34.349 34.253,28.194 33.354,29.673 44.128,36.276 		"/>
		<polygon fill="#E8E881" points="35.885,25.517 35.434,26.256 38.281,28.002 		"/>
		<polygon fill="#E8E881" points="38.505,42.469 29.054,36.736 28.154,38.214 31.825,40.466 		"/>
		<polygon fill="#E8E881" points="42.978,38.165 32.174,31.611 31.274,33.09 42.049,39.693 		"/>
		<polygon fill="#E8E881" points="40.073,42.938 40.898,41.582 30.094,35.027 29.194,36.506 39.324,42.714 		"/>
		<polygon fill="#E8E881" points="28.014,38.444 27.562,39.186 30.874,40.179 		"/>
		<polygon fill="#E8E881" points="41.938,39.874 31.134,33.319 30.234,34.797 41.009,41.401 		"/>
	</g>
</g>
<g>
	<polygon fill="#C1BF7C" points="25.897,39.572 34.221,25.9 43.288,35.308 38.408,43.325 	"/>
	<g>
		<polygon fill="#EEEFA0" points="37.308,29.104 33.629,26.872 32.729,28.352 42.146,34.122 		"/>
		<polygon fill="#EEEFA0" points="42.354,36.844 31.55,30.29 30.65,31.768 41.423,38.372 		"/>
		<polygon fill="#EEEFA0" points="43.288,35.308 42.738,34.736 32.59,28.581 31.689,30.059 42.462,36.663 		"/>
		<polygon fill="#EEEFA0" points="34.221,25.9 33.769,26.643 36.618,28.389 		"/>
		<polygon fill="#EEEFA0" points="36.841,42.855 27.389,37.124 26.49,38.602 30.161,40.851 		"/>
		<polygon fill="#EEEFA0" points="41.313,38.551 30.51,31.998 29.609,33.476 40.383,40.079 		"/>
		<polygon fill="#EEEFA0" points="38.408,43.325 39.233,41.97 28.43,35.414 27.531,36.893 37.66,43.101 		"/>
		<polygon fill="#EEEFA0" points="26.35,38.831 25.897,39.572 29.21,40.566 		"/>
		<polygon fill="#EEEFA0" points="40.273,40.261 29.47,33.706 28.569,35.185 39.344,41.788 		"/>
	</g>
</g>
</svg>
